<?xml version="1.0" encoding="UTF-8"?>
<svg id="Layer_1" xmlns="http://www.w3.org/2000/svg" version="1.1" viewBox="0 0 1493 333">
  <!-- Generator: Adobe Illustrator 30.5.1, SVG Export Plug-In . SVG Version: 2.1.4 Build 3)  -->
  <defs>
    <style>
      .st0 {
        fill: none;
        stroke: #1a1a1a;
        stroke-miterlimit: 10;
        stroke-width: 5px;
      }

      .st1, .st2, .st3 {
        fill: #fff;
      }

      .st2, .st3, .st4, .st5, .st6 {
        font-weight: 700;
      }

      .st2, .st5 {
        font-family: LiberationSerif-BoldItalic, 'Liberation Serif';
        font-size: 54px;
        font-style: italic;
      }

      .st3 {
        font-family: DejaVuSans-Bold, 'DejaVu Sans';
        font-size: 120px;
      }

      .st4 {
        fill: #14233a;
      }

      .st4, .st6 {
        font-family: DejaVuSansCondensed-Bold, 'DejaVu Sans';
        font-size: 39px;
      }

      .st5 {
        fill: #2d7dbe;
      }

      .st7, .st6 {
        fill: #9b1e37;
      }
    </style>
  </defs>
  <rect class="st1" x="2.5" y="2.5" width="1488" height="328" rx="9" ry="9"/>
  <rect class="st0" x="2.5" y="2.5" width="1488" height="328" rx="9" ry="9"/>
  <rect class="st7" x="30.5" y="20.5" width="196" height="168" rx="5" ry="5"/>
  <rect class="st7" x="237.5" y="20.5" width="196" height="168" rx="5" ry="5"/>
  <rect class="st7" x="444.5" y="20.5" width="196" height="168" rx="5" ry="5"/>
  <rect class="st7" x="651.5" y="20.5" width="196" height="168" rx="5" ry="5"/>
  <rect class="st7" x="858.5" y="20.5" width="196" height="168" rx="5" ry="5"/>
  <rect class="st7" x="1065.5" y="20.5" width="196" height="168" rx="5" ry="5"/>
  <rect class="st7" x="1272.5" y="20.5" width="196" height="168" rx="5" ry="5"/>
  <text class="st3" transform="translate(79.25 146.5)"><tspan x="0" y="0">G</tspan></text>
  <text class="st3" transform="translate(294.51 146.5)"><tspan x="0" y="0">E</tspan></text>
  <text class="st3" transform="translate(491.49 146.5)"><tspan x="0" y="0">O</tspan></text>
  <text class="st3" transform="translate(689.79 146.5)"><tspan x="0" y="0">M</tspan></text>
  <text class="st3" transform="translate(910.06 146.5)"><tspan x="0" y="0">A</tspan></text>
  <text class="st3" transform="translate(1117.2988 146.5)"><tspan x="0" y="0">R</tspan></text>
  <text class="st3" transform="translate(1324.0059 146.5)"><tspan x="0" y="0">K</tspan></text>
  <text class="st2" transform="translate(472.24 206.5)"><tspan x="0" y="0">Engineering Consultants</tspan></text>
  <text class="st2" transform="translate(471.89 205.2)"><tspan x="0" y="0">Engineering Consultants</tspan></text>
  <text class="st2" transform="translate(470.94 204.25)"><tspan x="0" y="0">Engineering Consultants</tspan></text>
  <text class="st2" transform="translate(469.64 203.9)"><tspan x="0" y="0">Engineering Consultants</tspan></text>
  <text class="st2" transform="translate(468.34 204.25)"><tspan x="0" y="0">Engineering Consultants</tspan></text>
  <text class="st2" transform="translate(467.39 205.2)"><tspan x="0" y="0">Engineering Consultants</tspan></text>
  <text class="st2" transform="translate(467.04 206.5)"><tspan x="0" y="0">Engineering Consultants</tspan></text>
  <text class="st2" transform="translate(467.39 207.8)"><tspan x="0" y="0">Engineering Consultants</tspan></text>
  <text class="st2" transform="translate(468.34 208.75)"><tspan x="0" y="0">Engineering Consultants</tspan></text>
  <text class="st2" transform="translate(469.64 209.1)"><tspan x="0" y="0">Engineering Consultants</tspan></text>
  <text class="st2" transform="translate(470.94 208.75)"><tspan x="0" y="0">Engineering Consultants</tspan></text>
  <text class="st2" transform="translate(471.89 207.8)"><tspan x="0" y="0">Engineering Consultants</tspan></text>
  <text class="st5" transform="translate(469.64 206.5)"><tspan x="0" y="0">Engineering Consultants</tspan></text>
  <text class="st4" transform="translate(211.59 292.5)"><tspan x="0" y="0">B</tspan></text>
  <text class="st4" transform="translate(246.33 292.5)"><tspan x="0" y="0">O</tspan></text>
  <text class="st4" transform="translate(284.15 292.5)"><tspan x="0" y="0">U</tspan></text>
  <text class="st4" transform="translate(320.63 292.5)"><tspan x="0" y="0">N</tspan></text>
  <text class="st4" transform="translate(358 292.5)"><tspan x="0" y="0">D</tspan></text>
  <text class="st4" transform="translate(395.13 292.5)"><tspan x="0" y="0">A</tspan></text>
  <text class="st4" transform="translate(430.29 292.5)"><tspan x="0" y="0">R</tspan></text>
  <text class="st4" transform="translate(465.31 292.5)"><tspan x="0" y="0">I</tspan></text>
  <text class="st4" transform="translate(486.36 292.5)"><tspan x="0" y="0">E</tspan></text>
  <text class="st4" transform="translate(518.33 292.5)"><tspan x="0" y="0">S</tspan></text>
  <text class="st4" transform="translate(551.6 292.5)"><tspan x="0" y="0"> </tspan></text>
  <text class="st4" transform="translate(571.81 292.5)"><tspan x="0" y="0">D</tspan></text>
  <text class="st4" transform="translate(608.94 292.5)"><tspan x="0" y="0">E</tspan></text>
  <text class="st4" transform="translate(640.92 292.5)"><tspan x="0" y="0">F</tspan></text>
  <text class="st4" transform="translate(672.89 292.5)"><tspan x="0" y="0">I</tspan></text>
  <text class="st4" transform="translate(693.94 292.5)"><tspan x="0" y="0">N</tspan></text>
  <text class="st4" transform="translate(731.3 292.5)"><tspan x="0" y="0">E</tspan></text>
  <text class="st4" transform="translate(763.28 292.5)"><tspan x="0" y="0">D</tspan></text>
  <text class="st6" transform="translate(800.41 292.5)"><tspan x="0" y="0">.</tspan></text>
  <text class="st4" transform="translate(821.74 292.5)"><tspan x="0" y="0"> </tspan></text>
  <text class="st4" transform="translate(841.95 292.5)"><tspan x="0" y="0"> </tspan></text>
  <text class="st4" transform="translate(862.16 292.5)"><tspan x="0" y="0">F</tspan></text>
  <text class="st4" transform="translate(894.13 292.5)"><tspan x="0" y="0">U</tspan></text>
  <text class="st4" transform="translate(930.62 292.5)"><tspan x="0" y="0">T</tspan></text>
  <text class="st4" transform="translate(962.56 292.5)"><tspan x="0" y="0">U</tspan></text>
  <text class="st4" transform="translate(999.04 292.5)"><tspan x="0" y="0">R</tspan></text>
  <text class="st4" transform="translate(1034.0674 292.5)"><tspan x="0" y="0">E</tspan></text>
  <text class="st4" transform="translate(1066.042 292.5)"><tspan x="0" y="0">S</tspan></text>
  <text class="st4" transform="translate(1099.3125 292.5)"><tspan x="0" y="0"> </tspan></text>
  <text class="st4" transform="translate(1119.5195 292.5)"><tspan x="0" y="0">B</tspan></text>
  <text class="st4" transform="translate(1154.2549 292.5)"><tspan x="0" y="0">U</tspan></text>
  <text class="st4" transform="translate(1190.7432 292.5)"><tspan x="0" y="0">I</tspan></text>
  <text class="st4" transform="translate(1211.7881 292.5)"><tspan x="0" y="0">L</tspan></text>
  <text class="st4" transform="translate(1242.1445 292.5)"><tspan x="0" y="0">T</tspan></text>
  <text class="st6" transform="translate(1274.0811 292.5)"><tspan x="0" y="0">.</tspan></text>
</svg>
